<svg width="24" height="24" viewBox="0 0 24 24" fill="none" xmlns="http://www.w3.org/2000/svg">
<path d="M14.25 20.25C14.25 21.0784 13.5784 21.75 12.75 21.75H11.25C10.4216 21.75 9.75 21.0784 9.75 20.25H14.25Z" fill="white"/>
<path fill-rule="evenodd" clip-rule="evenodd" d="M12.375 3C12.9174 3 13.3688 3.38414 13.4751 3.89502C16.9109 4.58027 19.5 7.61277 19.5 11.25V17.25H20.25C20.6642 17.25 21 17.5858 21 18C21 18.4142 20.6642 18.75 20.25 18.75H3.75C3.33579 18.75 3 18.4142 3 18C3 17.5858 3.33579 17.25 3.75 17.25H4.5V11.25C4.5 7.61327 7.08838 4.58082 10.5234 3.89502C10.6296 3.38399 11.0825 3 11.625 3H12.375ZM12 5.25C8.68629 5.25 6 7.93629 6 11.25V17.25H18V11.25C18 7.93629 15.3137 5.25 12 5.25Z" fill="white"/>
</svg>
