<svg width="24" height="24" viewBox="0 0 24 24" fill="none" xmlns="http://www.w3.org/2000/svg">
<path d="M17.25 15C17.6642 15 18 15.3358 18 15.75V17.25C18 17.6642 17.6642 18 17.25 18H15.75C15.3358 18 15 17.6642 15 17.25V15.75C15 15.3358 15.3358 15 15.75 15H17.25Z" fill="white"/>
<path fill-rule="evenodd" clip-rule="evenodd" d="M8.25 4.5C8.66421 4.5 9 4.83579 9 5.25V6H15V5.25C15 4.83579 15.3358 4.5 15.75 4.5H17.25C17.6642 4.5 18 4.83579 18 5.25V6L18.3062 6.01611C19.8192 6.16951 21 7.44652 21 9V18C21 19.5535 19.8192 20.8305 18.3062 20.9839L18 21H6C4.44652 21 3.16951 19.8192 3.01611 18.3062L3 18V9C3 7.34315 4.34315 6 6 6V5.25C6 4.83579 6.33579 4.5 6.75 4.5H8.25ZM4.5 12V18C4.5 18.8284 5.17157 19.5 6 19.5H18C18.8284 19.5 19.5 18.8284 19.5 18V12H4.5ZM6 7.5C5.17157 7.5 4.5 8.17157 4.5 9V10.5H19.5V9C19.5 8.22349 18.91 7.58432 18.1538 7.50732L18 7.5H6Z" fill="white"/>
</svg>
