<svg width="20" height="20" viewBox="0 0 20 20" fill="none" xmlns="http://www.w3.org/2000/svg">
<path d="M11.7842 3.71564C12.3699 3.13008 13.3195 3.13008 13.9053 3.71564L16.2842 6.09455C16.8698 6.6803 16.8698 7.62989 16.2842 8.21566L5.78419 18.7157L5.67432 18.8153C5.40742 19.0341 5.07176 19.1551 4.72364 19.1551H2.34473C1.5163 19.1551 0.844727 18.4836 0.844727 17.6551V15.2762C0.844805 14.9281 0.965818 14.5924 1.18457 14.3255L1.28418 14.2157L11.7842 3.71564ZM2.34473 15.2762V17.6551H4.72364L15.2237 7.15511L12.8447 4.77619L2.34473 15.2762ZM14.3447 1.15509C14.7589 0.740947 15.4305 0.740948 15.8447 1.15509L18.8448 4.1551C19.259 4.56929 19.2589 5.24088 18.8448 5.6551C18.4305 6.06932 17.759 6.06932 17.3448 5.6551L14.3447 2.65509C13.9306 2.24087 13.9306 1.56928 14.3447 1.15509Z" fill="white"/>
</svg>
