<svg width="33" height="32" viewBox="0 0 33 32" fill="none" xmlns="http://www.w3.org/2000/svg">
<path d="M16.8678 17.0195C17.3237 17.1126 17.6666 17.5166 17.6666 18C17.6666 18.4834 17.3237 18.8874 16.8678 18.9805L16.6666 19H12.6666C9.9052 19 7.66663 21.2386 7.66663 24V27C7.66663 27.5523 7.21891 28 6.66663 28C6.11434 28 5.66663 27.5523 5.66663 27V24C5.66663 20.134 8.80063 17 12.6666 17H16.6666L16.8678 17.0195Z" fill="#373A37"/>
<path fill-rule="evenodd" clip-rule="evenodd" d="M19.6666 20.5332C19.6667 18.9786 21.3629 18.0186 22.6959 18.8184L26.8092 21.2852C28.1029 22.0621 28.1029 23.9379 26.8092 24.7148L22.6959 27.1816L22.442 27.3125C21.243 27.8238 19.8647 27.0431 19.6862 25.752L19.6666 25.4668V20.5332ZM21.6666 25.4668L25.7799 23L21.6666 20.5332V25.4668Z" fill="#373A37"/>
<path fill-rule="evenodd" clip-rule="evenodd" d="M16.6666 3C19.9803 3 22.6666 5.68629 22.6666 9C22.6666 12.3137 19.9803 15 16.6666 15C13.3529 15 10.6666 12.3137 10.6666 9C10.6666 5.68629 13.3529 3 16.6666 3ZM16.6666 5C14.4575 5 12.6666 6.79086 12.6666 9C12.6666 11.2091 14.4575 13 16.6666 13C18.8758 13 20.6666 11.2091 20.6666 9C20.6666 6.79086 18.8758 5 16.6666 5Z" fill="#373A37"/>
</svg>
