<svg width="22" height="20" viewBox="0 0 22 20" fill="none" xmlns="http://www.w3.org/2000/svg">
<path fill-rule="evenodd" clip-rule="evenodd" d="M1.46943 0.469883C1.76231 0.177011 2.23708 0.177052 2.52998 0.469883L9.47774 7.41764C9.92423 7.15389 10.4436 7.0002 10.9997 7.00016C12.6566 7.00016 13.9997 8.3433 13.9997 10.0002C13.9997 10.5561 13.8444 11.0742 13.5808 11.5207L20.53 18.4699L20.6267 18.5871C20.8189 18.8782 20.7863 19.2741 20.53 19.5304C20.2737 19.7866 19.8777 19.8193 19.5866 19.6271L19.4694 19.5304L15.9245 15.9855C14.4317 16.8966 12.756 17.5002 10.9997 17.5002C6.84784 17.4998 3.14452 14.1325 1.24971 11.2819L0.895215 10.7209C0.633022 10.2807 0.655146 9.73308 0.94209 9.30875C1.81935 8.01409 3.21015 6.34331 4.91914 4.98014L1.46943 1.53043C1.17664 1.23757 1.17667 0.762765 1.46943 0.469883ZM5.92109 6.09781C4.36721 7.32254 3.077 8.85184 2.24873 10.0558C3.04059 11.3523 4.30483 12.8497 5.85078 14.0197C7.44306 15.2245 9.21893 16 10.9997 16.0002C12.3021 16.0002 13.6002 15.5825 14.8273 14.8883L12.5202 12.5812C12.2978 12.7125 12.0584 12.8167 11.8039 12.8874C11.7855 12.8926 11.7668 12.8971 11.7482 12.902C11.6873 12.9177 11.6261 12.9326 11.5637 12.9445C11.4884 12.9591 11.4123 12.9708 11.3352 12.9796C11.3157 12.9818 11.2962 12.9837 11.2766 12.9855C11.1854 12.9941 11.0931 13.0002 10.9997 13.0002C9.3432 12.9998 7.99975 11.6567 7.99971 10.0002C7.99971 9.90526 8.00562 9.81149 8.01436 9.71891C8.0159 9.70228 8.01693 9.68565 8.01875 9.6691C8.02829 9.58345 8.04164 9.49898 8.0583 9.41568C8.06699 9.3717 8.07847 9.32858 8.08906 9.28531C8.0994 9.24356 8.10922 9.20185 8.12129 9.1608C8.13433 9.11602 8.14726 9.07139 8.16231 9.0275C8.16898 9.0082 8.17723 8.98949 8.18428 8.97037C8.24724 8.79824 8.32523 8.6339 8.41719 8.47818L5.98701 6.04801C5.96538 6.06485 5.94268 6.08081 5.92109 6.09781ZM9.54512 9.63688C9.51609 9.75322 9.49971 9.87484 9.49971 10.0002C9.49975 10.8283 10.1716 11.4998 10.9997 11.5002C11.1335 11.5002 11.263 11.4803 11.3864 11.4474L9.55098 9.61197C9.54878 9.6202 9.54718 9.62859 9.54512 9.63688ZM10.9997 8.50016C10.8654 8.50018 10.7354 8.5183 10.6115 8.55143L12.447 10.3869C12.4799 10.2633 12.4997 10.1341 12.4997 10.0002C12.4997 9.17173 11.8281 8.50016 10.9997 8.50016Z" fill="white"/>
<path d="M10.9997 2.50016C15.3888 2.50016 19.2771 6.68164 21.0573 9.30875C21.3446 9.73322 21.3666 10.2806 21.1042 10.7209L20.7497 11.2819C20.1224 12.2255 19.2937 13.2224 18.3195 14.1383L17.2605 13.0793C18.3006 12.1061 19.157 11.0252 19.7492 10.0558C18.9208 8.85188 17.632 7.32226 16.0783 6.09781C14.4689 4.82966 12.7217 4.00016 10.9997 4.00016C10.219 4.00028 9.43326 4.17166 8.65742 4.47623L7.51631 3.33512C8.61692 2.81925 9.7892 2.5003 10.9997 2.50016Z" fill="white"/>
</svg>
