<svg width="22" height="16" viewBox="0 0 22 16" fill="none" xmlns="http://www.w3.org/2000/svg">
<path d="M11 0.5C15.3893 0.500047 19.2775 4.68151 21.0576 7.30859C21.3449 7.73305 21.3669 8.28043 21.1045 8.7207L20.75 9.28223C18.8551 12.133 15.152 15.5 11 15.5C6.84805 15.5 3.14502 12.133 1.25003 9.28223L0.895541 8.7207C0.6331 8.28041 0.655171 7.73306 0.942416 7.30859C2.72254 4.6815 6.61077 0.5 11 0.5ZM11 2C9.27783 2 7.53044 2.82928 5.92093 4.09766C4.36696 5.3224 3.07737 6.85163 2.24906 8.05566C3.04094 9.35217 4.30461 10.8496 5.85062 12.0195C7.4431 13.2245 9.21902 14 11 14C12.7809 14 14.5561 13.2244 16.1485 12.0195C17.6943 10.8498 18.9571 9.35206 19.7491 8.05566C18.9207 6.8517 17.6319 5.32215 16.0782 4.09766C14.4687 2.82941 12.7221 2.00002 11 2ZM11 5C12.6569 5.00004 14 6.34317 14 8C14 9.65683 12.6569 11 11 11C9.34318 11 8.00003 9.65685 8.00003 8C8.00003 6.34315 9.34318 5 11 5ZM11 6.5C10.1716 6.5 9.50003 7.17157 9.50003 8C9.50003 8.82843 10.1716 9.5 11 9.5C11.8284 9.49996 12.5 8.8284 12.5 8C12.5 7.1716 11.8284 6.50004 11 6.5Z" fill="white"/>
</svg>
