<svg width="32" height="32" viewBox="0 0 32 32" fill="none" xmlns="http://www.w3.org/2000/svg">
<path d="M12.6099 3.77014C14.5251 2.00273 17.476 2.00273 19.3912 3.77014L29.6783 13.2662L29.8131 13.4166C30.0846 13.7942 30.0626 14.3233 29.7349 14.6783C29.4076 15.0329 28.8828 15.0974 28.4849 14.858L28.3228 14.735L28.0006 14.4362V17.0006C28.0002 17.5524 27.5524 18.0003 27.0006 18.0006C26.4485 18.0006 26.0009 17.5526 26.0006 17.0006V12.5905L18.0357 5.23889C16.8866 4.17847 15.1145 4.17847 13.9654 5.23889L6.00057 12.5905V25.0006C6.00091 26.6572 7.34393 28.0006 9.00057 28.0006H16.0006C16.5526 28.0009 17.0006 28.4485 17.0006 29.0006C17.0002 29.5524 16.5524 30.0003 16.0006 30.0006H9.00057C6.23936 30.0006 4.00091 27.7617 4.00057 25.0006V14.4362L3.67831 14.735C3.27269 15.1093 2.64084 15.0835 2.2662 14.6783C1.89168 14.2725 1.91706 13.6408 2.32284 13.2662L12.6099 3.77014Z" fill="#373A37"/>
<path fill-rule="evenodd" clip-rule="evenodd" d="M19.0006 20.5338C19.0006 18.9792 20.6968 18.0191 22.0299 18.819L26.1432 21.2858C27.4362 22.0629 27.4365 23.9386 26.1432 24.7155L22.0299 27.1822L21.776 27.3131C20.5771 27.8243 19.199 27.0434 19.0201 25.7526L19.0006 25.4674V20.5338ZM21.0006 25.4674L25.1139 23.0006L21.0006 20.5338V25.4674Z" fill="#373A37"/>
</svg>
