<svg width="17" height="16" viewBox="0 0 17 16" fill="none" xmlns="http://www.w3.org/2000/svg">
<path d="M5.09424 8.81152C5.60946 7.78172 7.04529 7.6922 7.68408 8.65039L8.604 10.0303C8.93865 10.5316 9.64842 10.6016 10.0747 10.1753C10.4478 9.80268 11.0522 9.80263 11.4253 10.1753L11.6289 10.3789C12.4113 11.1617 11.8569 12.4999 10.75 12.5H5.67725C4.56217 12.5 3.83677 11.3265 4.33545 10.3291L5.09424 8.81152Z" fill="white"/>
<path fill-rule="evenodd" clip-rule="evenodd" d="M14.0562 0.516113C15.5692 0.669507 16.75 1.94652 16.75 3.5V12.5L16.7339 12.8062C16.5907 14.2185 15.4685 15.3407 14.0562 15.4839L13.75 15.5H3.25L2.94385 15.4839C1.53152 15.3407 0.409299 14.2185 0.266113 12.8062L0.25 12.5V3.5C0.25 1.94652 1.43083 0.669507 2.94385 0.516113L3.25 0.5H13.75L14.0562 0.516113ZM3.25 2C2.42157 2 1.75 2.67157 1.75 3.5V12.5C1.75 13.3284 2.42157 14 3.25 14H13.75C14.5784 14 15.25 13.3284 15.25 12.5V3.5C15.25 2.67157 14.5784 2 13.75 2H3.25Z" fill="white"/>
</svg>
