<svg width="24" height="24" viewBox="0 0 24 24" fill="none" xmlns="http://www.w3.org/2000/svg">
<path d="M15 15.75C15.4142 15.75 15.75 16.0858 15.75 16.5C15.75 16.9142 15.4142 17.25 15 17.25H9C8.58579 17.25 8.25 16.9142 8.25 16.5C8.25 16.0858 8.58579 15.75 9 15.75H15Z" fill="white"/>
<path fill-rule="evenodd" clip-rule="evenodd" d="M12 3C14.4853 3 16.5 5.01472 16.5 7.5C18.1569 7.5 19.5 8.84315 19.5 10.5V18C19.5 19.5535 18.3192 20.8305 16.8062 20.9839L16.5 21H7.5L7.19385 20.9839C5.78152 20.8407 4.6593 19.7185 4.51611 18.3062L4.5 18V10.5C4.5 8.84315 5.84315 7.5 7.5 7.5C7.5 5.01472 9.51472 3 12 3ZM7.5 9C6.67157 9 6 9.67157 6 10.5V18C6 18.8284 6.67157 19.5 7.5 19.5H16.5C17.3284 19.5 18 18.8284 18 18V10.5C18 9.67157 17.3284 9 16.5 9H7.5ZM12 4.5C10.3431 4.5 9 5.84315 9 7.5H15C15 5.84315 13.6569 4.5 12 4.5Z" fill="white"/>
</svg>
