<svg width="24" height="24" viewBox="0 0 24 24" fill="none" xmlns="http://www.w3.org/2000/svg">
<path d="M12 3C12.4142 3 12.75 3.33579 12.75 3.75C12.75 4.16421 12.4142 4.5 12 4.5H8.25C7.00736 4.5 6 5.50736 6 6.75V17.25C6 18.4926 7.00736 19.5 8.25 19.5H12C12.4142 19.5 12.75 19.8358 12.75 20.25C12.75 20.6642 12.4142 21 12 21H8.25C6.17893 21 4.5 19.3211 4.5 17.25V6.75C4.5 4.67893 6.17893 3 8.25 3H12Z" fill="white"/>
<path d="M15.9697 8.46973C16.2626 8.17683 16.7374 8.17683 17.0303 8.46973L19.5 10.9395C20.0857 11.5252 20.0857 12.4748 19.5 13.0605L17.0303 15.5303C16.7374 15.8231 16.2626 15.8231 15.9697 15.5303C15.6768 15.2374 15.6769 14.7626 15.9697 14.4697L17.6895 12.75H12C11.5858 12.75 11.25 12.4142 11.25 12C11.25 11.5858 11.5858 11.25 12 11.25H17.6895L15.9697 9.53027C15.6768 9.23739 15.6769 8.76262 15.9697 8.46973Z" fill="white"/>
</svg>
