<svg width="18" height="16" viewBox="0 0 18 16" fill="none" xmlns="http://www.w3.org/2000/svg">
<path d="M13.8135 5.13916C14.1505 4.89844 14.6201 4.97653 14.8608 5.31348C15.1015 5.65048 15.0234 6.12008 14.6865 6.36084L10.3081 9.48682C9.52582 10.0455 8.47418 10.0455 7.69189 9.48682L3.31348 6.36084L3.19922 6.25977C2.96222 6.00423 2.92873 5.6082 3.13916 5.31348C3.34997 5.01848 3.73587 4.92236 4.05469 5.06445L4.18652 5.13916L8.56348 8.2666C8.82421 8.4528 9.17578 8.45279 9.43652 8.2666L13.8135 5.13916Z" fill="white"/>
<path fill-rule="evenodd" clip-rule="evenodd" d="M15.3062 0.516113C16.8192 0.669507 18 1.94652 18 3.5V12.5C18 14.0535 16.8192 15.3305 15.3062 15.4839L15 15.5H3C1.44652 15.5 0.169507 14.3192 0.0161133 12.8062L0 12.5V3.5C0 1.84315 1.34315 0.5 3 0.5H15L15.3062 0.516113ZM3 2C2.17157 2 1.5 2.67157 1.5 3.5V12.5C1.5 13.3284 2.17157 14 3 14H15C15.8284 14 16.5 13.3284 16.5 12.5V3.5C16.5 2.72349 15.91 2.08432 15.1538 2.00732L15 2H3Z" fill="white"/>
</svg>
