<svg width="33" height="32" viewBox="0 0 33 32" fill="none" xmlns="http://www.w3.org/2000/svg">
<path d="M10.6791 17C9.96635 17.5764 9.34227 18.258 8.83337 19.0234C6.30665 19.2742 4.33337 21.4073 4.33337 24V27C4.33337 27.5523 3.88566 28 3.33337 28C2.78109 28 2.33337 27.5523 2.33337 27V24C2.33337 20.134 5.46738 17 9.33337 17H10.6791ZM20.5345 17.0195C20.9905 17.1126 21.3334 17.5166 21.3334 18C21.3334 18.4834 20.9905 18.8874 20.5345 18.9805L20.3334 19H16.3334C13.572 19 11.3334 21.2386 11.3334 24V27C11.3334 27.5523 10.8857 28 10.3334 28C9.78109 28 9.33337 27.5523 9.33337 27V24C9.33337 20.134 12.4674 17 16.3334 17H20.3334L20.5345 17.0195ZM22.3334 20.5332C22.3334 18.9786 24.0296 18.0186 25.3627 18.8184L29.476 21.2852C30.7697 22.0621 30.7697 23.9379 29.476 24.7148L25.3627 27.1816L25.1088 27.3125C23.9097 27.8238 22.5314 27.0431 22.3529 25.752L22.3334 25.4668V20.5332ZM24.3334 25.4668L28.4467 23L24.3334 20.5332V25.4668ZM13.3334 3C13.8512 3 14.3521 3.07197 14.8314 3.19531C14.2734 3.72436 13.7911 4.33193 13.4037 5.00195C13.3803 5.00155 13.3569 5 13.3334 5C11.1242 5 9.33337 6.79086 9.33337 9C9.33337 11.2091 11.1242 13 13.3334 13C13.3569 13 13.3803 12.9965 13.4037 12.9961C13.791 13.6663 14.2735 14.2735 14.8314 14.8027C14.3519 14.9262 13.8514 15 13.3334 15C10.0197 15 7.33337 12.3137 7.33337 9C7.33337 5.68629 10.0197 3 13.3334 3ZM20.3334 3C23.6471 3 26.3334 5.68629 26.3334 9C26.3334 12.3137 23.6471 15 20.3334 15C17.0197 15 14.3334 12.3137 14.3334 9C14.3334 5.68629 17.0197 3 20.3334 3ZM20.3334 5C18.1242 5 16.3334 6.79086 16.3334 9C16.3334 11.2091 18.1242 13 20.3334 13C22.5425 13 24.3334 11.2091 24.3334 9C24.3334 6.79086 22.5425 5 20.3334 5Z" fill="#373A37"/>
</svg>
