<svg width="24" height="24" viewBox="0 0 24 24" fill="none" xmlns="http://www.w3.org/2000/svg">
<path fill-rule="evenodd" clip-rule="evenodd" d="M12 2.625C12.4142 2.625 12.75 2.96079 12.75 3.375V5.625H13.5L13.6538 5.63232C14.41 5.70932 15 6.34848 15 7.125V8.625L14.9927 8.77881C14.9157 9.535 14.2765 10.125 13.5 10.125H12.75V20.625C12.75 21.0392 12.4142 21.375 12 21.375C11.5858 21.375 11.25 21.0392 11.25 20.625V10.125H10.5L10.3462 10.1177C9.64055 10.0458 9.07917 9.48445 9.00732 8.77881L9 8.625V7.125C9 6.29657 9.67157 5.625 10.5 5.625H11.25V3.375C11.25 2.96079 11.5858 2.625 12 2.625ZM10.5 8.325C10.5 8.49069 10.6343 8.625 10.8 8.625H13.2C13.3657 8.625 13.5 8.49069 13.5 8.325V7.425C13.5 7.25931 13.3657 7.125 13.2 7.125H10.8C10.6343 7.125 10.5 7.25931 10.5 7.425V8.325Z" fill="white"/>
<path fill-rule="evenodd" clip-rule="evenodd" d="M6.15381 10.8823C6.91 10.9593 7.5 11.5985 7.5 12.375V13.875L7.49268 14.0288C7.41568 14.785 6.77652 15.375 6 15.375H5.25V19.875C5.25 20.2892 4.91421 20.625 4.5 20.625C4.08579 20.625 3.75 20.2892 3.75 19.875V15.375H3L2.84619 15.3677C2.14055 15.2958 1.57917 14.7344 1.50732 14.0288L1.5 13.875V12.375C1.5 11.5466 2.17157 10.875 3 10.875H6L6.15381 10.8823ZM3 13.575C3 13.7407 3.13431 13.875 3.3 13.875H5.7C5.86569 13.875 6 13.7407 6 13.575V12.675C6 12.5093 5.86569 12.375 5.7 12.375H3.3C3.13431 12.375 3 12.5093 3 12.675V13.575Z" fill="white"/>
<path fill-rule="evenodd" clip-rule="evenodd" d="M21.1538 10.8823C21.91 10.9593 22.5 11.5985 22.5 12.375V13.875L22.4927 14.0288C22.4157 14.785 21.7765 15.375 21 15.375H20.25V19.875C20.25 20.2892 19.9142 20.625 19.5 20.625C19.0858 20.625 18.75 20.2892 18.75 19.875V15.375H18L17.8462 15.3677C17.1406 15.2958 16.5792 14.7344 16.5073 14.0288L16.5 13.875V12.375C16.5 11.5466 17.1716 10.875 18 10.875H21L21.1538 10.8823ZM18 13.575C18 13.7407 18.1343 13.875 18.3 13.875H20.7C20.8657 13.875 21 13.7407 21 13.575V12.675C21 12.5093 20.8657 12.375 20.7 12.375H18.3C18.1343 12.375 18 12.5093 18 12.675V13.575Z" fill="white"/>
<path d="M4.5 2.625C4.91421 2.625 5.25 2.96079 5.25 3.375V8.625C5.25 9.03921 4.91421 9.375 4.5 9.375C4.08579 9.375 3.75 9.03921 3.75 8.625V3.375C3.75 2.96079 4.08579 2.625 4.5 2.625Z" fill="white"/>
<path d="M19.5 2.625C19.9142 2.625 20.25 2.96079 20.25 3.375V8.625C20.25 9.03921 19.9142 9.375 19.5 9.375C19.0858 9.375 18.75 9.03921 18.75 8.625V3.375C18.75 2.96079 19.0858 2.625 19.5 2.625Z" fill="white"/>
</svg>
