<svg width="32" height="32" viewBox="0 0 32 32" fill="none" xmlns="http://www.w3.org/2000/svg">
<path fill-rule="evenodd" clip-rule="evenodd" d="M16.0007 11C18.7618 11.0004 21.0007 13.2388 21.0007 16C21.0007 18.7612 18.7618 20.9996 16.0007 21C13.2393 21 11.0007 18.7614 11.0007 16C11.0007 13.2386 13.2393 11 16.0007 11ZM16.0007 13C14.3439 13 13.0007 14.3431 13.0007 16C13.0007 17.6569 14.3439 19 16.0007 19C17.6573 18.9996 19.0007 17.6566 19.0007 16C19.0007 14.3434 17.6573 13.0004 16.0007 13Z" fill="white"/>
<path fill-rule="evenodd" clip-rule="evenodd" d="M19.8601 4C21.1972 4.00023 22.4465 4.66864 23.1882 5.78125L28.5222 13.7812C29.4174 15.1246 29.4174 16.8754 28.5222 18.2188L23.1882 26.2188L23.0437 26.4219C22.2904 27.4123 21.1138 27.9998 19.8601 28H12.1413L11.8913 27.9922C10.7323 27.9197 9.6608 27.3462 8.95774 26.4219L8.81321 26.2188L3.47922 18.2188C2.63955 16.959 2.58787 15.3414 3.32297 14.0371L3.47922 13.7812L8.81321 5.78125C9.50863 4.73829 10.6497 4.08545 11.8913 4.00781L12.1413 4H19.8601ZM12.1413 6C11.5561 6.00003 11.0048 6.2565 10.6277 6.69336L10.4773 6.89062L5.14328 14.8906C4.69573 15.5623 4.69573 16.4377 5.14328 17.1094L10.4773 25.1094L10.6277 25.3066C11.0048 25.7435 11.5561 26 12.1413 26H19.8601C20.5285 25.9998 21.1533 25.6656 21.5241 25.1094L26.8581 17.1094L27.0046 16.8496C27.2568 16.3122 27.2568 15.6878 27.0046 15.1504L26.8581 14.8906L21.5241 6.89062C21.1533 6.33442 20.5285 6.00023 19.8601 6H12.1413Z" fill="white"/>
</svg>
