<svg width="24" height="24" viewBox="0 0 24 24" fill="none" xmlns="http://www.w3.org/2000/svg">
<path d="M10.5 16.5C10.5 16.9142 10.1642 17.25 9.75 17.25C9.33579 17.25 9 16.9142 9 16.5V10.5C9 10.0858 9.33579 9.75 9.75 9.75C10.1642 9.75 10.5 10.0858 10.5 10.5V16.5Z" fill="white"/>
<path d="M15 16.5C15 16.9142 14.6642 17.25 14.25 17.25C13.8358 17.25 13.5 16.9142 13.5 16.5V10.5C13.5 10.0858 13.8358 9.75 14.25 9.75C14.6642 9.75 15 10.0858 15 10.5V16.5Z" fill="white"/>
<path fill-rule="evenodd" clip-rule="evenodd" d="M16.5 5.25H20.25C20.6642 5.25 21 5.58579 21 6C21 6.41421 20.6642 6.75 20.25 6.75H19.5V20.25C19.5 21.0784 18.8284 21.75 18 21.75H6C5.17157 21.75 4.5 21.0784 4.5 20.25V6.75H3.75C3.33579 6.75 3 6.41421 3 6C3 5.58579 3.33579 5.25 3.75 5.25H7.5V3.75C7.5 2.92157 8.17157 2.25 9 2.25H15C15.8284 2.25 16.5 2.92157 16.5 3.75V5.25ZM6 19.95C6 20.1157 6.13431 20.25 6.3 20.25H17.7C17.8657 20.25 18 20.1157 18 19.95V7.05C18 6.88431 17.8657 6.75 17.7 6.75H6.3C6.13431 6.75 6 6.88431 6 7.05V19.95ZM9 5.25H15V4.05C15 3.88431 14.8657 3.75 14.7 3.75H9.3C9.13431 3.75 9 3.88431 9 4.05V5.25Z" fill="white"/>
</svg>
