<svg width="24" height="24" viewBox="0 0 24 24" fill="none" xmlns="http://www.w3.org/2000/svg">
<path d="M15 13.125C17.8995 13.125 20.25 15.4755 20.25 18.375V20.625C20.25 21.0392 19.9142 21.375 19.5 21.375C19.0858 21.375 18.75 21.0392 18.75 20.625V18.375C18.75 16.3039 17.0711 14.625 15 14.625H9C6.92893 14.625 5.25 16.3039 5.25 18.375V20.625C5.25 21.0392 4.91421 21.375 4.5 21.375C4.08579 21.375 3.75 21.0392 3.75 20.625V18.375C3.75 15.4755 6.10051 13.125 9 13.125H15Z" fill="white"/>
<path fill-rule="evenodd" clip-rule="evenodd" d="M12 2.625C14.4853 2.625 16.5 4.63972 16.5 7.125C16.5 9.61028 14.4853 11.625 12 11.625C9.51472 11.625 7.5 9.61028 7.5 7.125C7.5 4.63972 9.51472 2.625 12 2.625ZM12 4.125C10.3431 4.125 9 5.46815 9 7.125C9 8.78185 10.3431 10.125 12 10.125C13.6569 10.125 15 8.78185 15 7.125C15 5.46815 13.6569 4.125 12 4.125Z" fill="white"/>
</svg>
